{"title":"Elite.Squad.The.Enemy.Within.2010.720p.Bluray.x264.anoXmous","uid":6930967,"size":733599544,"categoryP":"video","categoryS":"hd___movies","magnet":"?xt=urn:btih:30ed715f1b051adad725bf32c4b4c2485b7f3221&amp;dn=Elite.Squad.The.Enemy.Within.2010.720p.Bluray.x264.anoXmous&amp;tr=udp%3A%2F%2Ftracker.openbittorrent.com%3A80&amp;tr=udp%3A%2F%2Fopen.demonii.com%3A1337&amp;tr=udp%3A%2F%2Ftracker.coppersurfer.tk%3A6969&amp;tr=udp%3A%2F%2Fexodus.desync.com%3A6969","seeders":4,"leechers":0,"uploader":"anoXmous","files":-1,"time":1325662744,"description":"Elite.Squad.The.Enemy.Within.2010.720p.Bluray.x264.anoXmous\n\nFormat                           : MPEG-4\nFormat profile                   : Base Media\nCodec ID                         : isom\nFile size                        : 699 MiB\nDuration                         : 1h 54mn\nOverall bit rate mode            : Variable\nOverall bit rate                 : 852 Kbps\n\n\nVideo\nID                               : 1\nFormat                           : AVC\nFormat/Info                      : Advanced Video Codec\nFormat profile                   : &lt;a class=&quot;__cf_email__&quot; href=&quot;/cdn-cgi/l/email-protection&quot; data-cfemail=&quot;c880a1afa08884fce6f9&quot;&gt;[email&amp;#160;protected]&lt;/a&gt;&lt;script cf-hash='f9e31' type=&quot;text/javascript&quot;&gt;\n/* &lt;![CDATA[ */!function(){try{var t=&quot;currentScript&quot;in document?document.currentScript:function(){for(var t=document.getElementsByTagName(&quot;script&quot;),e=t.length;e--;)if(t[e].getAttribute(&quot;cf-hash&quot;))return t[e]}();if(t&amp;&amp;t.previousSibling){var e,r,n,i,c=t.previousSibling,a=c.getAttribute(&quot;data-cfemail&quot;);if(a){for(e=&quot;&quot;,r=parseInt(a.substr(0,2),16),n=2;a.length-n;n+=2)i=parseInt(a.substr(n,2),16)^r,e+=String.fromCharCode(i);e=document.createTextNode(e),c.parentNode.replaceChild(e,c)}}}catch(u){}}();/* ]]&gt; */&lt;/script&gt;\nFormat settings, CABAC           : Yes\nFormat settings, ReFrames        : 4 frames\nCodec ID                         : avc1\nCodec ID/Info                    : Advanced Video Coding\nDuration                         : 1h 54mn\nBit rate                         : 781 Kbps\nMaximum bit rate                 : 6 006 Kbps\nWidth                            : 1 280 pixels\nHeight                           : 720 pixels\nDisplay aspect ratio             : 16:9\nFrame rate mode                  : Constant\nFrame rate                       : 23.976 fps\nColor space                      : YUV\nChroma subsampling               : 4:2:0\nBit depth                        : 8 bits\nScan type                        : Progressive\nBits/(Pixel*Frame)               : 0.035\nStream size                      : 641 MiB (92%)\nWriting library                  : x264 core 120 r2120 0c7dab9\n\n\nAudio\nID                               : 2\nFormat                           : AAC\nFormat/Info                      : Advanced Audio Codec\nFormat profile                   : LC\nCodec ID                         : 40\nDuration                         : 1h 54mn\nBit rate mode                    : Variable\nBit rate                         : 68.4 Kbps\nMaximum bit rate                 : 91.4 Kbps\nChannel(s)                       : 2 channels\nChannel positions                : Front: L R\nSampling rate                    : 48.0 KHz \nCompression mode                 : Lossy\nStream size                      : 56.2 MiB (8%)\n\n\n                  SUB            :\n\n     : Elite.Squad.The.Enemy.Within.2010.720p.Bluray.x264.anoXmous_eng.srt\n                                 \n     : Elite.Squad.The.Enemy.Within.2010.720p.Bluray.x264.anoXmous_swe.srt\n                                 \n\n                 &lt;a href=&quot; http://www.imdb.com/title/tt1555149/&quot; rel=&quot;nofollow&quot; target=&quot;_NEW&quot;&gt; http://www.imdb.com/title/tt1555149/&lt;/a&gt;\n\n\t\t\t\t  \n                 This work very fine with PSP and XBOX\n\n","torrent":{"xt":"urn:btih:30ed715f1b051adad725bf32c4b4c2485b7f3221","amp;dn":"Elite.Squad.The.Enemy.Within.2010.720p.Bluray.x264.anoXmous","amp;tr":["udp%3A%2F%2Ftracker.openbittorrent.com%3A80","udp%3A%2F%2Fopen.demonii.com%3A1337","udp%3A%2F%2Ftracker.coppersurfer.tk%3A6969","udp%3A%2F%2Fexodus.desync.com%3A6969"],"infoHash":"30ed715f1b051adad725bf32c4b4c2485b7f3221","infoHashBuffer":{"type":"Buffer","data":[48,237,113,95,27,5,26,218,215,37,191,50,196,180,194,72,91,127,50,33]},"announce":[],"urlList":[]}}